<svg width="1140" height="1950" viewBox="0 0 1140 1950" class="keymap" xmlns="http://www.w3.org/2000/svg" xmlns:xlink="http://www.w3.org/1999/xlink">
<defs>/* start glyphs */
<svg id="mdi:alpha-w-box">
<svg xmlns="http://www.w3.org/2000/svg" id="mdi-alpha-w-box" viewBox="0 0 24 24"><path d="M9,17H15A2,2 0 0,0 17,15V7H15V15H13V8H11V15H9V7H7V15A2,2 0 0,0 9,17M5,3H19A2,2 0 0,1 21,5V19A2,2 0 0,1 19,21H5A2,2 0 0,1 3,19V5A2,2 0 0,1 5,3Z" /></svg>
</svg>
<svg id="mdi:apple-keyboard-command">
<svg xmlns="http://www.w3.org/2000/svg" id="mdi-apple-keyboard-command" viewBox="0 0 24 24"><path d="M6,2A4,4 0 0,1 10,6V8H14V6A4,4 0 0,1 18,2A4,4 0 0,1 22,6A4,4 0 0,1 18,10H16V14H18A4,4 0 0,1 22,18A4,4 0 0,1 18,22A4,4 0 0,1 14,18V16H10V18A4,4 0 0,1 6,22A4,4 0 0,1 2,18A4,4 0 0,1 6,14H8V10H6A4,4 0 0,1 2,6A4,4 0 0,1 6,2M16,18A2,2 0 0,0 18,20A2,2 0 0,0 20,18A2,2 0 0,0 18,16H16V18M14,10H10V14H14V10M6,16A2,2 0 0,0 4,18A2,2 0 0,0 6,20A2,2 0 0,0 8,18V16H6M8,6A2,2 0 0,0 6,4A2,2 0 0,0 4,6A2,2 0 0,0 6,8H8V6M18,8A2,2 0 0,0 20,6A2,2 0 0,0 18,4A2,2 0 0,0 16,6V8H18Z" /></svg>
</svg>
<svg id="mdi:apple-keyboard-control">
<svg xmlns="http://www.w3.org/2000/svg" id="mdi-apple-keyboard-control" viewBox="0 0 24 24"><path d="M19.78,11.78L18.36,13.19L12,6.83L5.64,13.19L4.22,11.78L12,4L19.78,11.78Z" /></svg>
</svg>
<svg id="mdi:apple-keyboard-option">
<svg xmlns="http://www.w3.org/2000/svg" id="mdi-apple-keyboard-option" viewBox="0 0 24 24"><path d="M3,4H9.11L16.15,18H21V20H14.88L7.84,6H3V4M14,4H21V6H14V4Z" /></svg>
</svg>
<svg id="mdi:apple-keyboard-shift">
<svg xmlns="http://www.w3.org/2000/svg" id="mdi-apple-keyboard-shift" viewBox="0 0 24 24"><path d="M15,18V12H17.17L12,6.83L6.83,12H9V18H15M12,4L22,14H17V20H7V14H2L12,4Z" /></svg>
</svg>
<svg id="mdi:backup-restore">
<svg xmlns="http://www.w3.org/2000/svg" id="mdi-backup-restore" viewBox="0 0 24 24"><path d="M12,3A9,9 0 0,0 3,12H0L4,16L8,12H5A7,7 0 0,1 12,5A7,7 0 0,1 19,12A7,7 0 0,1 12,19C10.5,19 9.09,18.5 7.94,17.7L6.5,19.14C8.04,20.3 9.94,21 12,21A9,9 0 0,0 21,12A9,9 0 0,0 12,3M14,12A2,2 0 0,0 12,10A2,2 0 0,0 10,12A2,2 0 0,0 12,14A2,2 0 0,0 14,12Z" /></svg>
</svg>
<svg id="mdi:bluetooth-connect">
<svg xmlns="http://www.w3.org/2000/svg" id="mdi-bluetooth-connect" viewBox="0 0 24 24"><path d="M19,10L17,12L19,14L21,12M14.88,16.29L13,18.17V14.41M13,5.83L14.88,7.71L13,9.58M17.71,7.71L12,2H11V9.58L6.41,5L5,6.41L10.59,12L5,17.58L6.41,19L11,14.41V22H12L17.71,16.29L13.41,12M7,12L5,10L3,12L5,14L7,12Z" /></svg>
</svg>
<svg id="mdi:bluetooth-off">
<svg xmlns="http://www.w3.org/2000/svg" id="mdi-bluetooth-off" viewBox="0 0 24 24"><path d="M13,5.83L14.88,7.71L13.28,9.31L14.69,10.72L17.71,7.7L12,2H11V7.03L13,9.03M5.41,4L4,5.41L10.59,12L5,17.59L6.41,19L11,14.41V22H12L16.29,17.71L18.59,20L20,18.59M13,18.17V14.41L14.88,16.29" /></svg>
</svg>
<svg id="mdi:chevron-double-down">
<svg xmlns="http://www.w3.org/2000/svg" id="mdi-chevron-double-down" viewBox="0 0 24 24"><path d="M16.59,5.59L18,7L12,13L6,7L7.41,5.59L12,10.17L16.59,5.59M16.59,11.59L18,13L12,19L6,13L7.41,11.59L12,16.17L16.59,11.59Z" /></svg>
</svg>
<svg id="mdi:chevron-double-up">
<svg xmlns="http://www.w3.org/2000/svg" id="mdi-chevron-double-up" viewBox="0 0 24 24"><path d="M7.41,18.41L6,17L12,11L18,17L16.59,18.41L12,13.83L7.41,18.41M7.41,12.41L6,11L12,5L18,11L16.59,12.41L12,7.83L7.41,12.41Z" /></svg>
</svg>
<svg id="mdi:keyboard-tab">
<svg xmlns="http://www.w3.org/2000/svg" id="mdi-keyboard-tab" viewBox="0 0 24 24"><path d="M20,18H22V6H20M11.59,7.41L15.17,11H1V13H15.17L11.59,16.58L13,18L19,12L13,6L11.59,7.41Z" /></svg>
</svg>
<svg id="mdi:progress-download">
<svg xmlns="http://www.w3.org/2000/svg" id="mdi-progress-download" viewBox="0 0 24 24"><path d="M13,2.03C17.73,2.5 21.5,6.25 21.95,11C22.5,16.5 18.5,21.38 13,21.93V19.93C16.64,19.5 19.5,16.61 19.96,12.97C20.5,8.58 17.39,4.59 13,4.05V2.05L13,2.03M11,2.06V4.06C9.57,4.26 8.22,4.84 7.1,5.74L5.67,4.26C7.19,3 9.05,2.25 11,2.06M4.26,5.67L5.69,7.1C4.8,8.23 4.24,9.58 4.05,11H2.05C2.25,9.04 3,7.19 4.26,5.67M2.06,13H4.06C4.24,14.42 4.81,15.77 5.69,16.9L4.27,18.33C3.03,16.81 2.26,14.96 2.06,13M7.1,18.37C8.23,19.25 9.58,19.82 11,20V22C9.04,21.79 7.18,21 5.67,19.74L7.1,18.37M12,16.5L7.5,12H11V8H13V12H16.5L12,16.5Z" /></svg>
</svg>
<svg id="mdi:transfer">
<svg xmlns="http://www.w3.org/2000/svg" id="mdi-transfer" viewBox="0 0 24 24"><path d="M8 4A2 2 0 0 0 6 6V10H8V6H16V9H13.5L17 12.5L20.5 9H18V6A2 2 0 0 0 16 4H8M3 12V14H11V12H3M3 15V17H11V15H3M13 15V17H21V15H13M3 18V20H11V18H3M13 18V20H21V18H13Z" /></svg>
</svg>
</defs>/* end glyphs */
<style>/* inherit to force styles through use tags */
svg path {
    fill: inherit;
}

/* root DOM */
svg.keymap {
    font-family: SFMono-Regular,Consolas,Liberation Mono,Menlo,monospace;
    font-size: 18px;
    font-kerning: normal;
    text-rendering: optimizeLegibility;
    background: #26233a;
}

rect.key {
    fill: #21202e ; /* switch background key color */
    stroke: #403d52; /* switch border color */
    stroke-width: 1;
}

/* default key side styling, only used is draw_key_sides is set */
rect.side {
    filter: brightness(90%);
}

/* color accent for combo boxes */
rect.combo, rect.combo-separate {
    fill: #524f67;
}

/* color accent for held keys */
rect.held, rect.combo.held {
    fill: #e0def4;
}

/* color accent for ghost (optional) keys */
rect.ghost, rect.combo.ghost {
    stroke-dasharray: 4, 4;
    stroke-width: 2;
}

text {
    text-anchor: middle;
    dominant-baseline: middle;
}

/* main layer keys text */
text.tap, text.combo, use.tap {
    fill: #e0def4;
}
text.hold {
    fill: #31748f;
    font-size: 16px; /* simlar to glyph_hold_size */
}
use.hold {
    fill: #31748f;
}

/* styling for layer labels */
text.label {
    font-weight: bold;
    text-anchor: start;
    fill: #e0def4;
    stroke-width: 0;
    paint-order: stroke;
    text-transform: uppercase;
}

/* styling for combo tap, and key hold/shifted label text */
text.combo, text.shifted {
}

text.hold {
    text-anchor: middle;
    dominant-baseline: auto;
}

text.shifted {
    text-anchor: middle;
    dominant-baseline: hanging;
    font-size: 16px;
    fill: #f6c177;
}

/* styling for hold/shifted label text in combo box */
text.combo.hold, text.combo.shifted {
    font-size: 8px;
}

/* lighter symbol for transparent keys */
rect.trans {
    fill: #403d52;
}
use.trans {
    fill: #6e6a86;
}

/* styling for combo dendrons */
path.combo {
    stroke-width: 1;
    stroke: gray;
    fill: none;
}

/* Start Tabler Icons Cleanup */
/* cannot use height/width with glyphs */
.icon-tabler > path {
    fill: inherit;
    stroke: inherit;
    stroke-width: 2;
}
/* hide tabler's default box */
.icon-tabler > path[stroke="none"][fill="none"] {
    visibility: hidden;
}
/* End Tabler Icons Cleanup */
</style>
<g transform="translate(30, 0)" class="layer-DEF">
<text x="0" y="15" class="label">DEF</text>
<g transform="translate(0, 30)">
<g transform="translate(45, 129)" class="key keypos-0">
<rect rx="4" ry="4" x="-44" y="-44" width="87" height="87" class="key"/>
<text x="0" y="0" class="key tap">Q</text>
</g>
<g transform="translate(135, 73)" class="key keypos-1">
<rect rx="4" ry="4" x="-44" y="-44" width="87" height="87" class="key"/>
<text x="0" y="0" class="key tap">W</text>
</g>
<g transform="translate(225, 45)" class="key keypos-2">
<rect rx="4" ry="4" x="-44" y="-44" width="87" height="87" class="key"/>
<text x="0" y="0" class="key tap">F</text>
</g>
<g transform="translate(315, 70)" class="key keypos-3">
<rect rx="4" ry="4" x="-44" y="-44" width="87" height="87" class="key"/>
<text x="0" y="0" class="key tap">P</text>
</g>
<g transform="translate(405, 83)" class="key keypos-4">
<rect rx="4" ry="4" x="-44" y="-44" width="87" height="87" class="key"/>
<text x="0" y="0" class="key tap">B</text>
</g>
<g transform="translate(675, 83)" class="key keypos-5">
<rect rx="4" ry="4" x="-44" y="-44" width="87" height="87" class="key"/>
<text x="0" y="0" class="key tap">J</text>
</g>
<g transform="translate(765, 70)" class="key keypos-6">
<rect rx="4" ry="4" x="-44" y="-44" width="87" height="87" class="key"/>
<text x="0" y="0" class="key tap">L</text>
</g>
<g transform="translate(855, 45)" class="key keypos-7">
<rect rx="4" ry="4" x="-44" y="-44" width="87" height="87" class="key"/>
<text x="0" y="0" class="key tap">U</text>
</g>
<g transform="translate(945, 73)" class="key keypos-8">
<rect rx="4" ry="4" x="-44" y="-44" width="87" height="87" class="key"/>
<text x="0" y="0" class="key tap">Y</text>
</g>
<g transform="translate(1035, 129)" class="key keypos-9">
<rect rx="4" ry="4" x="-44" y="-44" width="87" height="87" class="key"/>
<text x="0" y="0" class="key tap">&#x27;</text>
</g>
<g transform="translate(45, 219)" class="key keypos-10">
<rect rx="4" ry="4" x="-44" y="-44" width="87" height="87" class="key"/>
<text x="0" y="0" class="key tap">A</text>
<use href="#mdi:apple-keyboard-shift" xlink:href="#mdi:apple-keyboard-shift" x="-8" y="24" height="16" width="16.0" class="key hold glyph mdi:apple-keyboard-shift"/>
</g>
<g transform="translate(135, 163)" class="key keypos-11">
<rect rx="4" ry="4" x="-44" y="-44" width="87" height="87" class="key"/>
<text x="0" y="0" class="key tap">R</text>
<use href="#mdi:apple-keyboard-option" xlink:href="#mdi:apple-keyboard-option" x="-8" y="24" height="16" width="16.0" class="key hold glyph mdi:apple-keyboard-option"/>
</g>
<g transform="translate(225, 135)" class="key keypos-12">
<rect rx="4" ry="4" x="-44" y="-44" width="87" height="87" class="key"/>
<text x="0" y="0" class="key tap">S</text>
<use href="#mdi:apple-keyboard-control" xlink:href="#mdi:apple-keyboard-control" x="-8" y="24" height="16" width="16.0" class="key hold glyph mdi:apple-keyboard-control"/>
</g>
<g transform="translate(315, 160)" class="key keypos-13">
<rect rx="4" ry="4" x="-44" y="-44" width="87" height="87" class="key"/>
<text x="0" y="0" class="key tap">T</text>
<use href="#mdi:apple-keyboard-command" xlink:href="#mdi:apple-keyboard-command" x="-8" y="24" height="16" width="16.0" class="key hold glyph mdi:apple-keyboard-command"/>
</g>
<g transform="translate(405, 173)" class="key keypos-14">
<rect rx="4" ry="4" x="-44" y="-44" width="87" height="87" class="key"/>
<text x="0" y="0" class="key tap">G</text>
</g>
<g transform="translate(675, 173)" class="key keypos-15">
<rect rx="4" ry="4" x="-44" y="-44" width="87" height="87" class="key"/>
<text x="0" y="0" class="key tap">M</text>
</g>
<g transform="translate(765, 160)" class="key keypos-16">
<rect rx="4" ry="4" x="-44" y="-44" width="87" height="87" class="key"/>
<text x="0" y="0" class="key tap">N</text>
<use href="#mdi:apple-keyboard-command" xlink:href="#mdi:apple-keyboard-command" x="-8" y="24" height="16" width="16.0" class="key hold glyph mdi:apple-keyboard-command"/>
</g>
<g transform="translate(855, 135)" class="key keypos-17">
<rect rx="4" ry="4" x="-44" y="-44" width="87" height="87" class="key"/>
<text x="0" y="0" class="key tap">E</text>
<use href="#mdi:apple-keyboard-control" xlink:href="#mdi:apple-keyboard-control" x="-8" y="24" height="16" width="16.0" class="key hold glyph mdi:apple-keyboard-control"/>
</g>
<g transform="translate(945, 163)" class="key keypos-18">
<rect rx="4" ry="4" x="-44" y="-44" width="87" height="87" class="key"/>
<text x="0" y="0" class="key tap">I</text>
<use href="#mdi:apple-keyboard-option" xlink:href="#mdi:apple-keyboard-option" x="-8" y="24" height="16" width="16.0" class="key hold glyph mdi:apple-keyboard-option"/>
</g>
<g transform="translate(1035, 219)" class="key keypos-19">
<rect rx="4" ry="4" x="-44" y="-44" width="87" height="87" class="key"/>
<text x="0" y="0" class="key tap">O</text>
<use href="#mdi:apple-keyboard-shift" xlink:href="#mdi:apple-keyboard-shift" x="-8" y="24" height="16" width="16.0" class="key hold glyph mdi:apple-keyboard-shift"/>
</g>
<g transform="translate(45, 309)" class="key keypos-20">
<rect rx="4" ry="4" x="-44" y="-44" width="87" height="87" class="key"/>
<text x="0" y="0" class="key tap">Z</text>
</g>
<g transform="translate(135, 253)" class="key keypos-21">
<rect rx="4" ry="4" x="-44" y="-44" width="87" height="87" class="key"/>
<text x="0" y="0" class="key tap">X</text>
</g>
<g transform="translate(225, 225)" class="key keypos-22">
<rect rx="4" ry="4" x="-44" y="-44" width="87" height="87" class="key"/>
<text x="0" y="0" class="key tap">C</text>
</g>
<g transform="translate(315, 250)" class="key keypos-23">
<rect rx="4" ry="4" x="-44" y="-44" width="87" height="87" class="key"/>
<text x="0" y="0" class="key tap">D</text>
</g>
<g transform="translate(405, 263)" class="key keypos-24">
<rect rx="4" ry="4" x="-44" y="-44" width="87" height="87" class="key"/>
<text x="0" y="0" class="key tap">V</text>
</g>
<g transform="translate(675, 263)" class="key keypos-25">
<rect rx="4" ry="4" x="-44" y="-44" width="87" height="87" class="key"/>
<text x="0" y="0" class="key tap">K</text>
</g>
<g transform="translate(765, 250)" class="key keypos-26">
<rect rx="4" ry="4" x="-44" y="-44" width="87" height="87" class="key"/>
<text x="0" y="0" class="key tap">H</text>
</g>
<g transform="translate(855, 225)" class="key keypos-27">
<rect rx="4" ry="4" x="-44" y="-44" width="87" height="87" class="key"/>
<text x="0" y="0" class="key tap">,</text>
</g>
<g transform="translate(945, 253)" class="key keypos-28">
<rect rx="4" ry="4" x="-44" y="-44" width="87" height="87" class="key"/>
<text x="0" y="0" class="key tap">.</text>
</g>
<g transform="translate(1035, 309)" class="key keypos-29">
<rect rx="4" ry="4" x="-44" y="-44" width="87" height="87" class="key"/>
<text x="0" y="0" class="key tap">/</text>
</g>
<g transform="translate(360, 382)" class="key keypos-30">
<rect rx="4" ry="4" x="-44" y="-44" width="87" height="87" class="key"/>
<use href="#mdi:keyboard-tab" xlink:href="#mdi:keyboard-tab" x="-10" y="-10" height="20" width="20.0" class="key tap glyph mdi:keyboard-tab"/>
<text x="0" y="40" class="key hold">NAV</text>
</g>
<g transform="translate(450, 405)" class="key keypos-31">
<rect rx="4" ry="4" x="-44" y="-44" width="87" height="87" class="key"/>
<text x="0" y="0" class="key tap">SPACE</text>
</g>
<g transform="translate(630, 405)" class="key keypos-32">
<rect rx="4" ry="4" x="-44" y="-44" width="87" height="87" class="key"/>
<text x="0" y="0" class="key tap">ENTER</text>
</g>
<g transform="translate(720, 382)" class="key keypos-33">
<rect rx="4" ry="4" x="-44" y="-44" width="87" height="87" class="key"/>
<text x="0" y="0" class="key tap">Bspc</text>
<text x="0" y="40" class="key hold">SYM</text>
</g>
<g class="combo combopos-0">
<rect rx="4" ry="4" x="791" y="39" width="38" height="38" class="combo"/>
<text x="810" y="58" class="combo tap">Bspc</text>
</g>
</g>
</g>
<g transform="translate(30, 480)" class="layer-SYM">
<text x="0" y="15" class="label">SYM</text>
<g transform="translate(0, 30)">
<g transform="translate(45, 129)" class="key keypos-0">
<rect rx="4" ry="4" x="-44" y="-44" width="87" height="87" class="key"/>
<text x="0" y="0" class="key tap">INS</text>
</g>
<g transform="translate(135, 73)" class="key keypos-1">
<rect rx="4" ry="4" x="-44" y="-44" width="87" height="87" class="key"/>
<text x="0" y="0" class="key tap">1</text>
</g>
<g transform="translate(225, 45)" class="key keypos-2">
<rect rx="4" ry="4" x="-44" y="-44" width="87" height="87" class="key"/>
<text x="0" y="0" class="key tap">2</text>
</g>
<g transform="translate(315, 70)" class="key keypos-3">
<rect rx="4" ry="4" x="-44" y="-44" width="87" height="87" class="key"/>
<text x="0" y="0" class="key tap">3</text>
</g>
<g transform="translate(405, 83)" class="key trans keypos-4">
<rect rx="4" ry="4" x="-44" y="-44" width="87" height="87" class="key trans"/>
<use href="#mdi:transfer" xlink:href="#mdi:transfer" x="-10" y="-10" height="20" width="20.0" class="key trans tap glyph mdi:transfer"/>
</g>
<g transform="translate(675, 83)" class="key keypos-5">
<rect rx="4" ry="4" x="-44" y="-44" width="87" height="87" class="key"/>
<text x="0" y="0" class="key tap">HOME</text>
</g>
<g transform="translate(765, 70)" class="key keypos-6">
<rect rx="4" ry="4" x="-44" y="-44" width="87" height="87" class="key"/>
<use href="#mdi:chevron-double-down" xlink:href="#mdi:chevron-double-down" x="-10" y="-10" height="20" width="20.0" class="key tap glyph mdi:chevron-double-down"/>
</g>
<g transform="translate(855, 45)" class="key keypos-7">
<rect rx="4" ry="4" x="-44" y="-44" width="87" height="87" class="key"/>
<use href="#mdi:chevron-double-up" xlink:href="#mdi:chevron-double-up" x="-10" y="-10" height="20" width="20.0" class="key tap glyph mdi:chevron-double-up"/>
</g>
<g transform="translate(945, 73)" class="key keypos-8">
<rect rx="4" ry="4" x="-44" y="-44" width="87" height="87" class="key"/>
<text x="0" y="0" class="key tap">END</text>
</g>
<g transform="translate(1035, 129)" class="key keypos-9">
<rect rx="4" ry="4" x="-44" y="-44" width="87" height="87" class="key"/>
<text x="0" y="0" class="key tap">:</text>
</g>
<g transform="translate(45, 219)" class="key keypos-10">
<rect rx="4" ry="4" x="-44" y="-44" width="87" height="87" class="key"/>
<text x="0" y="0" class="key tap">Del</text>
</g>
<g transform="translate(135, 163)" class="key keypos-11">
<rect rx="4" ry="4" x="-44" y="-44" width="87" height="87" class="key"/>
<text x="0" y="0" class="key tap">4</text>
</g>
<g transform="translate(225, 135)" class="key keypos-12">
<rect rx="4" ry="4" x="-44" y="-44" width="87" height="87" class="key"/>
<text x="0" y="0" class="key tap">5</text>
</g>
<g transform="translate(315, 160)" class="key keypos-13">
<rect rx="4" ry="4" x="-44" y="-44" width="87" height="87" class="key"/>
<text x="0" y="0" class="key tap">6</text>
</g>
<g transform="translate(405, 173)" class="key trans keypos-14">
<rect rx="4" ry="4" x="-44" y="-44" width="87" height="87" class="key trans"/>
<use href="#mdi:transfer" xlink:href="#mdi:transfer" x="-10" y="-10" height="20" width="20.0" class="key trans tap glyph mdi:transfer"/>
</g>
<g transform="translate(675, 173)" class="key keypos-15">
<rect rx="4" ry="4" x="-44" y="-44" width="87" height="87" class="key"/>
<text x="0" y="0" class="key tap">LARW</text>
</g>
<g transform="translate(765, 160)" class="key keypos-16">
<rect rx="4" ry="4" x="-44" y="-44" width="87" height="87" class="key"/>
<text x="0" y="0" class="key tap">DARW</text>
</g>
<g transform="translate(855, 135)" class="key keypos-17">
<rect rx="4" ry="4" x="-44" y="-44" width="87" height="87" class="key"/>
<text x="0" y="0" class="key tap">UARW</text>
</g>
<g transform="translate(945, 163)" class="key keypos-18">
<rect rx="4" ry="4" x="-44" y="-44" width="87" height="87" class="key"/>
<text x="0" y="0" class="key tap">RARW</text>
</g>
<g transform="translate(1035, 219)" class="key keypos-19">
<rect rx="4" ry="4" x="-44" y="-44" width="87" height="87" class="key"/>
<text x="0" y="0" class="key tap">SEMI</text>
</g>
<g transform="translate(45, 309)" class="key keypos-20">
<rect rx="4" ry="4" x="-44" y="-44" width="87" height="87" class="key"/>
<use href="#mdi:alpha-w-box" xlink:href="#mdi:alpha-w-box" x="-10" y="-10" height="20" width="20.0" class="key tap glyph mdi:alpha-w-box"/>
</g>
<g transform="translate(135, 253)" class="key keypos-21">
<rect rx="4" ry="4" x="-44" y="-44" width="87" height="87" class="key"/>
<text x="0" y="0" class="key tap">7</text>
</g>
<g transform="translate(225, 225)" class="key keypos-22">
<rect rx="4" ry="4" x="-44" y="-44" width="87" height="87" class="key"/>
<text x="0" y="0" class="key tap">8</text>
</g>
<g transform="translate(315, 250)" class="key keypos-23">
<rect rx="4" ry="4" x="-44" y="-44" width="87" height="87" class="key"/>
<text x="0" y="0" class="key tap">9</text>
</g>
<g transform="translate(405, 263)" class="key keypos-24">
<rect rx="4" ry="4" x="-44" y="-44" width="87" height="87" class="key"/>
<text x="0" y="0" class="key tap">0</text>
</g>
<g transform="translate(675, 263)" class="key trans keypos-25">
<rect rx="4" ry="4" x="-44" y="-44" width="87" height="87" class="key trans"/>
<use href="#mdi:transfer" xlink:href="#mdi:transfer" x="-10" y="-10" height="20" width="20.0" class="key trans tap glyph mdi:transfer"/>
</g>
<g transform="translate(765, 250)" class="key trans keypos-26">
<rect rx="4" ry="4" x="-44" y="-44" width="87" height="87" class="key trans"/>
<use href="#mdi:transfer" xlink:href="#mdi:transfer" x="-10" y="-10" height="20" width="20.0" class="key trans tap glyph mdi:transfer"/>
</g>
<g transform="translate(855, 225)" class="key trans keypos-27">
<rect rx="4" ry="4" x="-44" y="-44" width="87" height="87" class="key trans"/>
<use href="#mdi:transfer" xlink:href="#mdi:transfer" x="-10" y="-10" height="20" width="20.0" class="key trans tap glyph mdi:transfer"/>
</g>
<g transform="translate(945, 253)" class="key trans keypos-28">
<rect rx="4" ry="4" x="-44" y="-44" width="87" height="87" class="key trans"/>
<use href="#mdi:transfer" xlink:href="#mdi:transfer" x="-10" y="-10" height="20" width="20.0" class="key trans tap glyph mdi:transfer"/>
</g>
<g transform="translate(1035, 309)" class="key trans keypos-29">
<rect rx="4" ry="4" x="-44" y="-44" width="87" height="87" class="key trans"/>
<use href="#mdi:transfer" xlink:href="#mdi:transfer" x="-10" y="-10" height="20" width="20.0" class="key trans tap glyph mdi:transfer"/>
</g>
<g transform="translate(360, 382)" class="key trans keypos-30">
<rect rx="4" ry="4" x="-44" y="-44" width="87" height="87" class="key trans"/>
<use href="#mdi:transfer" xlink:href="#mdi:transfer" x="-10" y="-10" height="20" width="20.0" class="key trans tap glyph mdi:transfer"/>
</g>
<g transform="translate(450, 405)" class="key keypos-31">
<rect rx="4" ry="4" x="-44" y="-44" width="87" height="87" class="key"/>
<text x="0" y="0" class="key tap">Esc</text>
</g>
<g transform="translate(630, 405)" class="key trans keypos-32">
<rect rx="4" ry="4" x="-44" y="-44" width="87" height="87" class="key trans"/>
<use href="#mdi:transfer" xlink:href="#mdi:transfer" x="-10" y="-10" height="20" width="20.0" class="key trans tap glyph mdi:transfer"/>
</g>
<g transform="translate(720, 382)" class="key held keypos-33">
<rect rx="4" ry="4" x="-44" y="-44" width="87" height="87" class="key held"/>
</g>
</g>
</g>
<g transform="translate(30, 960)" class="layer-NAV">
<text x="0" y="15" class="label">NAV</text>
<g transform="translate(0, 30)">
<g transform="translate(45, 129)" class="key trans keypos-0">
<rect rx="4" ry="4" x="-44" y="-44" width="87" height="87" class="key trans"/>
<use href="#mdi:transfer" xlink:href="#mdi:transfer" x="-10" y="-10" height="20" width="20.0" class="key trans tap glyph mdi:transfer"/>
</g>
<g transform="translate(135, 73)" class="key keypos-1">
<rect rx="4" ry="4" x="-44" y="-44" width="87" height="87" class="key"/>
<text x="0" y="0" class="key tap">{</text>
</g>
<g transform="translate(225, 45)" class="key keypos-2">
<rect rx="4" ry="4" x="-44" y="-44" width="87" height="87" class="key"/>
<text x="0" y="0" class="key tap">(</text>
</g>
<g transform="translate(315, 70)" class="key keypos-3">
<rect rx="4" ry="4" x="-44" y="-44" width="87" height="87" class="key"/>
<text x="0" y="0" class="key tap">)</text>
</g>
<g transform="translate(405, 83)" class="key trans keypos-4">
<rect rx="4" ry="4" x="-44" y="-44" width="87" height="87" class="key trans"/>
<use href="#mdi:transfer" xlink:href="#mdi:transfer" x="-10" y="-10" height="20" width="20.0" class="key trans tap glyph mdi:transfer"/>
</g>
<g transform="translate(675, 83)" class="key keypos-5">
<rect rx="4" ry="4" x="-44" y="-44" width="87" height="87" class="key"/>
<text x="0" y="0" class="key tap">^</text>
</g>
<g transform="translate(765, 70)" class="key keypos-6">
<rect rx="4" ry="4" x="-44" y="-44" width="87" height="87" class="key"/>
<text x="0" y="0" class="key tap">LPAR</text>
</g>
<g transform="translate(855, 45)" class="key keypos-7">
<rect rx="4" ry="4" x="-44" y="-44" width="87" height="87" class="key"/>
<text x="0" y="0" class="key tap">RPAR</text>
</g>
<g transform="translate(945, 73)" class="key keypos-8">
<rect rx="4" ry="4" x="-44" y="-44" width="87" height="87" class="key"/>
<text x="0" y="0" class="key tap">}</text>
</g>
<g transform="translate(1035, 129)" class="key keypos-9">
<rect rx="4" ry="4" x="-44" y="-44" width="87" height="87" class="key"/>
<text x="0" y="0" class="key tap">~</text>
</g>
<g transform="translate(45, 219)" class="key keypos-10">
<rect rx="4" ry="4" x="-44" y="-44" width="87" height="87" class="key"/>
<text x="0" y="0" class="key tap">!</text>
</g>
<g transform="translate(135, 163)" class="key keypos-11">
<rect rx="4" ry="4" x="-44" y="-44" width="87" height="87" class="key"/>
<text x="0" y="0" class="key tap">@</text>
</g>
<g transform="translate(225, 135)" class="key keypos-12">
<rect rx="4" ry="4" x="-44" y="-44" width="87" height="87" class="key"/>
<text x="0" y="0" class="key tap">#</text>
</g>
<g transform="translate(315, 160)" class="key keypos-13">
<rect rx="4" ry="4" x="-44" y="-44" width="87" height="87" class="key"/>
<text x="0" y="0" class="key tap">$</text>
</g>
<g transform="translate(405, 173)" class="key keypos-14">
<rect rx="4" ry="4" x="-44" y="-44" width="87" height="87" class="key"/>
<text x="0" y="0" class="key tap">%</text>
</g>
<g transform="translate(675, 173)" class="key keypos-15">
<rect rx="4" ry="4" x="-44" y="-44" width="87" height="87" class="key"/>
<text x="0" y="0" class="key tap">ASTRK</text>
</g>
<g transform="translate(765, 160)" class="key keypos-16">
<rect rx="4" ry="4" x="-44" y="-44" width="87" height="87" class="key"/>
<text x="0" y="0" class="key tap">-</text>
</g>
<g transform="translate(855, 135)" class="key keypos-17">
<rect rx="4" ry="4" x="-44" y="-44" width="87" height="87" class="key"/>
<text x="0" y="0" class="key tap">=</text>
</g>
<g transform="translate(945, 163)" class="key keypos-18">
<rect rx="4" ry="4" x="-44" y="-44" width="87" height="87" class="key"/>
<text x="0" y="0" class="key tap">\</text>
</g>
<g transform="translate(1035, 219)" class="key keypos-19">
<rect rx="4" ry="4" x="-44" y="-44" width="87" height="87" class="key"/>
<text x="0" y="0" class="key tap">`</text>
</g>
<g transform="translate(45, 309)" class="key trans keypos-20">
<rect rx="4" ry="4" x="-44" y="-44" width="87" height="87" class="key trans"/>
<use href="#mdi:transfer" xlink:href="#mdi:transfer" x="-10" y="-10" height="20" width="20.0" class="key trans tap glyph mdi:transfer"/>
</g>
<g transform="translate(135, 253)" class="key trans keypos-21">
<rect rx="4" ry="4" x="-44" y="-44" width="87" height="87" class="key trans"/>
<use href="#mdi:transfer" xlink:href="#mdi:transfer" x="-10" y="-10" height="20" width="20.0" class="key trans tap glyph mdi:transfer"/>
</g>
<g transform="translate(225, 225)" class="key trans keypos-22">
<rect rx="4" ry="4" x="-44" y="-44" width="87" height="87" class="key trans"/>
<use href="#mdi:transfer" xlink:href="#mdi:transfer" x="-10" y="-10" height="20" width="20.0" class="key trans tap glyph mdi:transfer"/>
</g>
<g transform="translate(315, 250)" class="key trans keypos-23">
<rect rx="4" ry="4" x="-44" y="-44" width="87" height="87" class="key trans"/>
<use href="#mdi:transfer" xlink:href="#mdi:transfer" x="-10" y="-10" height="20" width="20.0" class="key trans tap glyph mdi:transfer"/>
</g>
<g transform="translate(405, 263)" class="key trans keypos-24">
<rect rx="4" ry="4" x="-44" y="-44" width="87" height="87" class="key trans"/>
<use href="#mdi:transfer" xlink:href="#mdi:transfer" x="-10" y="-10" height="20" width="20.0" class="key trans tap glyph mdi:transfer"/>
</g>
<g transform="translate(675, 263)" class="key keypos-25">
<rect rx="4" ry="4" x="-44" y="-44" width="87" height="87" class="key"/>
<text x="0" y="0" class="key tap">&amp;</text>
</g>
<g transform="translate(765, 250)" class="key keypos-26">
<rect rx="4" ry="4" x="-44" y="-44" width="87" height="87" class="key"/>
<text x="0" y="0" class="key tap">_</text>
</g>
<g transform="translate(855, 225)" class="key keypos-27">
<rect rx="4" ry="4" x="-44" y="-44" width="87" height="87" class="key"/>
<text x="0" y="0" class="key tap">+</text>
</g>
<g transform="translate(945, 253)" class="key keypos-28">
<rect rx="4" ry="4" x="-44" y="-44" width="87" height="87" class="key"/>
<text x="0" y="0" class="key tap">|</text>
</g>
<g transform="translate(1035, 309)" class="key trans keypos-29">
<rect rx="4" ry="4" x="-44" y="-44" width="87" height="87" class="key trans"/>
<use href="#mdi:transfer" xlink:href="#mdi:transfer" x="-10" y="-10" height="20" width="20.0" class="key trans tap glyph mdi:transfer"/>
</g>
<g transform="translate(360, 382)" class="key held keypos-30">
<rect rx="4" ry="4" x="-44" y="-44" width="87" height="87" class="key held"/>
</g>
<g transform="translate(450, 405)" class="key trans keypos-31">
<rect rx="4" ry="4" x="-44" y="-44" width="87" height="87" class="key trans"/>
<use href="#mdi:transfer" xlink:href="#mdi:transfer" x="-10" y="-10" height="20" width="20.0" class="key trans tap glyph mdi:transfer"/>
</g>
<g transform="translate(630, 405)" class="key trans keypos-32">
<rect rx="4" ry="4" x="-44" y="-44" width="87" height="87" class="key trans"/>
<use href="#mdi:transfer" xlink:href="#mdi:transfer" x="-10" y="-10" height="20" width="20.0" class="key trans tap glyph mdi:transfer"/>
</g>
<g transform="translate(720, 382)" class="key trans keypos-33">
<rect rx="4" ry="4" x="-44" y="-44" width="87" height="87" class="key trans"/>
<use href="#mdi:transfer" xlink:href="#mdi:transfer" x="-10" y="-10" height="20" width="20.0" class="key trans tap glyph mdi:transfer"/>
</g>
</g>
</g>
<g transform="translate(30, 1440)" class="layer-FUN">
<text x="0" y="15" class="label">FUN</text>
<g transform="translate(0, 30)">
<g transform="translate(45, 129)" class="key bootloader keypos-0">
<rect rx="4" ry="4" x="-44" y="-44" width="87" height="87" class="key bootloader"/>
<use href="#mdi:backup-restore" xlink:href="#mdi:backup-restore" x="-10" y="-10" height="20" width="20.0" class="key bootloader tap glyph mdi:backup-restore"/>
</g>
<g transform="translate(135, 73)" class="key trans keypos-1">
<rect rx="4" ry="4" x="-44" y="-44" width="87" height="87" class="key trans"/>
<use href="#mdi:transfer" xlink:href="#mdi:transfer" x="-10" y="-10" height="20" width="20.0" class="key trans tap glyph mdi:transfer"/>
</g>
<g transform="translate(225, 45)" class="key trans keypos-2">
<rect rx="4" ry="4" x="-44" y="-44" width="87" height="87" class="key trans"/>
<use href="#mdi:transfer" xlink:href="#mdi:transfer" x="-10" y="-10" height="20" width="20.0" class="key trans tap glyph mdi:transfer"/>
</g>
<g transform="translate(315, 70)" class="key trans keypos-3">
<rect rx="4" ry="4" x="-44" y="-44" width="87" height="87" class="key trans"/>
<use href="#mdi:transfer" xlink:href="#mdi:transfer" x="-10" y="-10" height="20" width="20.0" class="key trans tap glyph mdi:transfer"/>
</g>
<g transform="translate(405, 83)" class="key keypos-4">
<rect rx="4" ry="4" x="-44" y="-44" width="87" height="87" class="key"/>
<use href="#mdi:bluetooth-connect" xlink:href="#mdi:bluetooth-connect" x="-10" y="-10" height="20" width="20.0" class="key tap glyph mdi:bluetooth-connect"/>
<text x="0" y="40" class="key hold">1</text>
</g>
<g transform="translate(675, 83)" class="key trans keypos-5">
<rect rx="4" ry="4" x="-44" y="-44" width="87" height="87" class="key trans"/>
<use href="#mdi:transfer" xlink:href="#mdi:transfer" x="-10" y="-10" height="20" width="20.0" class="key trans tap glyph mdi:transfer"/>
</g>
<g transform="translate(765, 70)" class="key trans keypos-6">
<rect rx="4" ry="4" x="-44" y="-44" width="87" height="87" class="key trans"/>
<use href="#mdi:transfer" xlink:href="#mdi:transfer" x="-10" y="-10" height="20" width="20.0" class="key trans tap glyph mdi:transfer"/>
</g>
<g transform="translate(855, 45)" class="key trans keypos-7">
<rect rx="4" ry="4" x="-44" y="-44" width="87" height="87" class="key trans"/>
<use href="#mdi:transfer" xlink:href="#mdi:transfer" x="-10" y="-10" height="20" width="20.0" class="key trans tap glyph mdi:transfer"/>
</g>
<g transform="translate(945, 73)" class="key trans keypos-8">
<rect rx="4" ry="4" x="-44" y="-44" width="87" height="87" class="key trans"/>
<use href="#mdi:transfer" xlink:href="#mdi:transfer" x="-10" y="-10" height="20" width="20.0" class="key trans tap glyph mdi:transfer"/>
</g>
<g transform="translate(1035, 129)" class="key bootloader keypos-9">
<rect rx="4" ry="4" x="-44" y="-44" width="87" height="87" class="key bootloader"/>
<use href="#mdi:backup-restore" xlink:href="#mdi:backup-restore" x="-10" y="-10" height="20" width="20.0" class="key bootloader tap glyph mdi:backup-restore"/>
</g>
<g transform="translate(45, 219)" class="key keypos-10">
<rect rx="4" ry="4" x="-44" y="-44" width="87" height="87" class="key"/>
<use href="#mdi:progress-download" xlink:href="#mdi:progress-download" x="-10" y="-10" height="20" width="20.0" class="key tap glyph mdi:progress-download"/>
</g>
<g transform="translate(135, 163)" class="key trans keypos-11">
<rect rx="4" ry="4" x="-44" y="-44" width="87" height="87" class="key trans"/>
<use href="#mdi:transfer" xlink:href="#mdi:transfer" x="-10" y="-10" height="20" width="20.0" class="key trans tap glyph mdi:transfer"/>
</g>
<g transform="translate(225, 135)" class="key trans keypos-12">
<rect rx="4" ry="4" x="-44" y="-44" width="87" height="87" class="key trans"/>
<use href="#mdi:transfer" xlink:href="#mdi:transfer" x="-10" y="-10" height="20" width="20.0" class="key trans tap glyph mdi:transfer"/>
</g>
<g transform="translate(315, 160)" class="key trans keypos-13">
<rect rx="4" ry="4" x="-44" y="-44" width="87" height="87" class="key trans"/>
<use href="#mdi:transfer" xlink:href="#mdi:transfer" x="-10" y="-10" height="20" width="20.0" class="key trans tap glyph mdi:transfer"/>
</g>
<g transform="translate(405, 173)" class="key keypos-14">
<rect rx="4" ry="4" x="-44" y="-44" width="87" height="87" class="key"/>
<use href="#mdi:bluetooth-connect" xlink:href="#mdi:bluetooth-connect" x="-10" y="-10" height="20" width="20.0" class="key tap glyph mdi:bluetooth-connect"/>
<text x="0" y="40" class="key hold">2</text>
</g>
<g transform="translate(675, 173)" class="key trans keypos-15">
<rect rx="4" ry="4" x="-44" y="-44" width="87" height="87" class="key trans"/>
<use href="#mdi:transfer" xlink:href="#mdi:transfer" x="-10" y="-10" height="20" width="20.0" class="key trans tap glyph mdi:transfer"/>
</g>
<g transform="translate(765, 160)" class="key trans keypos-16">
<rect rx="4" ry="4" x="-44" y="-44" width="87" height="87" class="key trans"/>
<use href="#mdi:transfer" xlink:href="#mdi:transfer" x="-10" y="-10" height="20" width="20.0" class="key trans tap glyph mdi:transfer"/>
</g>
<g transform="translate(855, 135)" class="key trans keypos-17">
<rect rx="4" ry="4" x="-44" y="-44" width="87" height="87" class="key trans"/>
<use href="#mdi:transfer" xlink:href="#mdi:transfer" x="-10" y="-10" height="20" width="20.0" class="key trans tap glyph mdi:transfer"/>
</g>
<g transform="translate(945, 163)" class="key trans keypos-18">
<rect rx="4" ry="4" x="-44" y="-44" width="87" height="87" class="key trans"/>
<use href="#mdi:transfer" xlink:href="#mdi:transfer" x="-10" y="-10" height="20" width="20.0" class="key trans tap glyph mdi:transfer"/>
</g>
<g transform="translate(1035, 219)" class="key keypos-19">
<rect rx="4" ry="4" x="-44" y="-44" width="87" height="87" class="key"/>
<use href="#mdi:progress-download" xlink:href="#mdi:progress-download" x="-10" y="-10" height="20" width="20.0" class="key tap glyph mdi:progress-download"/>
</g>
<g transform="translate(45, 309)" class="key trans keypos-20">
<rect rx="4" ry="4" x="-44" y="-44" width="87" height="87" class="key trans"/>
<use href="#mdi:transfer" xlink:href="#mdi:transfer" x="-10" y="-10" height="20" width="20.0" class="key trans tap glyph mdi:transfer"/>
</g>
<g transform="translate(135, 253)" class="key trans keypos-21">
<rect rx="4" ry="4" x="-44" y="-44" width="87" height="87" class="key trans"/>
<use href="#mdi:transfer" xlink:href="#mdi:transfer" x="-10" y="-10" height="20" width="20.0" class="key trans tap glyph mdi:transfer"/>
</g>
<g transform="translate(225, 225)" class="key trans keypos-22">
<rect rx="4" ry="4" x="-44" y="-44" width="87" height="87" class="key trans"/>
<use href="#mdi:transfer" xlink:href="#mdi:transfer" x="-10" y="-10" height="20" width="20.0" class="key trans tap glyph mdi:transfer"/>
</g>
<g transform="translate(315, 250)" class="key keypos-23">
<rect rx="4" ry="4" x="-44" y="-44" width="87" height="87" class="key"/>
<use href="#mdi:bluetooth-off" xlink:href="#mdi:bluetooth-off" x="-10" y="-10" height="20" width="20.0" class="key tap glyph mdi:bluetooth-off"/>
</g>
<g transform="translate(405, 263)" class="key keypos-24">
<rect rx="4" ry="4" x="-44" y="-44" width="87" height="87" class="key"/>
<use href="#mdi:bluetooth-connect" xlink:href="#mdi:bluetooth-connect" x="-10" y="-10" height="20" width="20.0" class="key tap glyph mdi:bluetooth-connect"/>
<text x="0" y="40" class="key hold">3</text>
</g>
<g transform="translate(675, 263)" class="key trans keypos-25">
<rect rx="4" ry="4" x="-44" y="-44" width="87" height="87" class="key trans"/>
<use href="#mdi:transfer" xlink:href="#mdi:transfer" x="-10" y="-10" height="20" width="20.0" class="key trans tap glyph mdi:transfer"/>
</g>
<g transform="translate(765, 250)" class="key trans keypos-26">
<rect rx="4" ry="4" x="-44" y="-44" width="87" height="87" class="key trans"/>
<use href="#mdi:transfer" xlink:href="#mdi:transfer" x="-10" y="-10" height="20" width="20.0" class="key trans tap glyph mdi:transfer"/>
</g>
<g transform="translate(855, 225)" class="key trans keypos-27">
<rect rx="4" ry="4" x="-44" y="-44" width="87" height="87" class="key trans"/>
<use href="#mdi:transfer" xlink:href="#mdi:transfer" x="-10" y="-10" height="20" width="20.0" class="key trans tap glyph mdi:transfer"/>
</g>
<g transform="translate(945, 253)" class="key trans keypos-28">
<rect rx="4" ry="4" x="-44" y="-44" width="87" height="87" class="key trans"/>
<use href="#mdi:transfer" xlink:href="#mdi:transfer" x="-10" y="-10" height="20" width="20.0" class="key trans tap glyph mdi:transfer"/>
</g>
<g transform="translate(1035, 309)" class="key trans keypos-29">
<rect rx="4" ry="4" x="-44" y="-44" width="87" height="87" class="key trans"/>
<use href="#mdi:transfer" xlink:href="#mdi:transfer" x="-10" y="-10" height="20" width="20.0" class="key trans tap glyph mdi:transfer"/>
</g>
<g transform="translate(360, 382)" class="key held keypos-30">
<rect rx="4" ry="4" x="-44" y="-44" width="87" height="87" class="key held"/>
</g>
<g transform="translate(450, 405)" class="key trans keypos-31">
<rect rx="4" ry="4" x="-44" y="-44" width="87" height="87" class="key trans"/>
<use href="#mdi:transfer" xlink:href="#mdi:transfer" x="-10" y="-10" height="20" width="20.0" class="key trans tap glyph mdi:transfer"/>
</g>
<g transform="translate(630, 405)" class="key trans keypos-32">
<rect rx="4" ry="4" x="-44" y="-44" width="87" height="87" class="key trans"/>
<use href="#mdi:transfer" xlink:href="#mdi:transfer" x="-10" y="-10" height="20" width="20.0" class="key trans tap glyph mdi:transfer"/>
</g>
<g transform="translate(720, 382)" class="key held keypos-33">
<rect rx="4" ry="4" x="-44" y="-44" width="87" height="87" class="key held"/>
</g>
</g>
</g>
</svg>
